<mxfile host="Electron" modified="2023-11-08T16:07:35.444Z" agent="Mozilla/5.0 (Windows NT 10.0; Win64; x64) AppleWebKit/537.36 (KHTML, like Gecko) draw.io/22.0.2 Chrome/114.0.5735.289 Electron/25.8.4 Safari/537.36" etag="mTggJ7KyjLVq1tPbeGmr" version="22.0.2" type="device">
  <diagram name="Страница — 1" id="_nxsnCKDdp9Tido3llgT">
    <mxGraphModel dx="1220" dy="932" grid="1" gridSize="10" guides="1" tooltips="1" connect="1" arrows="1" fold="1" page="1" pageScale="1" pageWidth="827" pageHeight="1169" math="0" shadow="0">
      <root>
        <mxCell id="0" />
        <mxCell id="1" parent="0" />
        <mxCell id="oSBFTI3M8UVQWP8sQZfG-1" value="" style="group" parent="1" vertex="1" connectable="0">
          <mxGeometry x="450" y="890" width="270" height="510" as="geometry" />
        </mxCell>
        <mxCell id="oSBFTI3M8UVQWP8sQZfG-2" value="AirPurity Prosperity" style="strokeWidth=1;shadow=0;dashed=0;align=center;html=1;shape=mxgraph.mockup.containers.window;align=left;verticalAlign=top;spacingLeft=8;strokeColor2=#008cff;strokeColor3=#c4c4c4;fontColor=#666666;mainText=;fontSize=17;labelBackgroundColor=none;whiteSpace=wrap;" parent="oSBFTI3M8UVQWP8sQZfG-1" vertex="1">
          <mxGeometry width="270" height="510" as="geometry" />
        </mxCell>
        <mxCell id="oSBFTI3M8UVQWP8sQZfG-3" value="Бюджет &quot;Комунальні платежі 12.2023&quot;" style="text;html=1;strokeColor=none;fillColor=none;align=center;verticalAlign=middle;whiteSpace=wrap;rounded=0;fontSize=22;" parent="oSBFTI3M8UVQWP8sQZfG-1" vertex="1">
          <mxGeometry y="30" width="270" height="60" as="geometry" />
        </mxCell>
        <mxCell id="oSBFTI3M8UVQWP8sQZfG-4" value="&lt;span style=&quot;font-size: 14px;&quot;&gt;Категорія: &quot;Обов&#39;язкові витрати&quot;&lt;/span&gt;" style="strokeWidth=1;shadow=0;dashed=0;align=center;html=1;shape=mxgraph.mockup.text.textBox;align=left;fontSize=17;spacingLeft=4;spacingTop=-3;whiteSpace=wrap;mainText=" parent="oSBFTI3M8UVQWP8sQZfG-1" vertex="1">
          <mxGeometry x="35" y="150" width="195" height="50" as="geometry" />
        </mxCell>
        <mxCell id="oSBFTI3M8UVQWP8sQZfG-5" value="&lt;span style=&quot;font-size: 14px;&quot;&gt;Ліміт: 3500&lt;/span&gt;" style="strokeWidth=1;shadow=0;dashed=0;align=center;html=1;shape=mxgraph.mockup.text.textBox;align=left;fontSize=17;spacingLeft=4;spacingTop=-3;whiteSpace=wrap;mainText=" parent="oSBFTI3M8UVQWP8sQZfG-1" vertex="1">
          <mxGeometry x="35" y="110" width="195" height="40" as="geometry" />
        </mxCell>
        <mxCell id="MJPnheeUQ36UCyVxqO9e-3" value="&lt;span style=&quot;font-size: 12px;&quot;&gt;Додати категорію&lt;/span&gt;" style="strokeWidth=1;shadow=0;dashed=0;align=center;html=1;shape=mxgraph.mockup.text.textBox;align=left;fontSize=17;spacingLeft=4;spacingTop=-3;whiteSpace=wrap;mainText=;" vertex="1" parent="oSBFTI3M8UVQWP8sQZfG-1">
          <mxGeometry x="35" y="200" width="195" height="40" as="geometry" />
        </mxCell>
        <mxCell id="oSBFTI3M8UVQWP8sQZfG-6" value="AirPurity Prosperity" style="strokeWidth=1;shadow=0;dashed=0;align=center;html=1;shape=mxgraph.mockup.containers.window;align=left;verticalAlign=top;spacingLeft=8;strokeColor2=#008cff;strokeColor3=#c4c4c4;fontColor=#666666;mainText=;fontSize=17;labelBackgroundColor=none;whiteSpace=wrap;" parent="1" vertex="1">
          <mxGeometry x="881" y="860" width="270" height="510" as="geometry" />
        </mxCell>
        <mxCell id="oSBFTI3M8UVQWP8sQZfG-11" value="" style="endArrow=classic;html=1;rounded=0;exitX=1.014;exitY=0.596;exitDx=0;exitDy=0;exitPerimeter=0;entryX=-0.003;entryY=0.298;entryDx=0;entryDy=0;entryPerimeter=0;" parent="1" source="MJPnheeUQ36UCyVxqO9e-3" target="oSBFTI3M8UVQWP8sQZfG-6" edge="1">
          <mxGeometry width="50" height="50" relative="1" as="geometry">
            <mxPoint x="651" y="1060" as="sourcePoint" />
            <mxPoint x="701" y="1010" as="targetPoint" />
          </mxGeometry>
        </mxCell>
        <mxCell id="MJPnheeUQ36UCyVxqO9e-10" value="&lt;span style=&quot;font-size: 12px;&quot;&gt;Назва катеогрії: Енергопостачання&lt;br&gt;&lt;/span&gt;" style="strokeWidth=1;shadow=0;dashed=0;align=center;html=1;shape=mxgraph.mockup.text.textBox;align=left;fontSize=17;spacingLeft=4;spacingTop=-3;whiteSpace=wrap;mainText=;" vertex="1" parent="1">
          <mxGeometry x="918.5" y="949" width="195" height="40" as="geometry" />
        </mxCell>
        <mxCell id="MJPnheeUQ36UCyVxqO9e-11" value="&lt;span style=&quot;font-size: 12px;&quot;&gt;Ліміт категорії: 2000&lt;br&gt;&lt;/span&gt;" style="strokeWidth=1;shadow=0;dashed=0;align=center;html=1;shape=mxgraph.mockup.text.textBox;align=left;fontSize=17;spacingLeft=4;spacingTop=-3;whiteSpace=wrap;mainText=;" vertex="1" parent="1">
          <mxGeometry x="918.5" y="989" width="195" height="40" as="geometry" />
        </mxCell>
        <mxCell id="MJPnheeUQ36UCyVxqO9e-12" value="&lt;div style=&quot;&quot;&gt;&lt;span style=&quot;font-size: 12px; background-color: initial;&quot;&gt;Додати&lt;/span&gt;&lt;/div&gt;" style="strokeWidth=1;shadow=0;dashed=0;align=center;html=1;shape=mxgraph.mockup.text.textBox;align=left;fontSize=17;spacingLeft=4;spacingTop=-3;whiteSpace=wrap;mainText=;" vertex="1" parent="1">
          <mxGeometry x="918.5" y="1029" width="195" height="40" as="geometry" />
        </mxCell>
        <mxCell id="MJPnheeUQ36UCyVxqO9e-15" value="AirPurity Prosperity" style="strokeWidth=1;shadow=0;dashed=0;align=center;html=1;shape=mxgraph.mockup.containers.window;align=left;verticalAlign=top;spacingLeft=8;strokeColor2=#008cff;strokeColor3=#c4c4c4;fontColor=#666666;mainText=;fontSize=17;labelBackgroundColor=none;whiteSpace=wrap;" vertex="1" parent="1">
          <mxGeometry x="1280" y="890" width="270" height="510" as="geometry" />
        </mxCell>
        <mxCell id="MJPnheeUQ36UCyVxqO9e-16" value="Бюджет &quot;Комунальні платежі 12.2023&quot;" style="text;html=1;strokeColor=none;fillColor=none;align=center;verticalAlign=middle;whiteSpace=wrap;rounded=0;fontSize=22;" vertex="1" parent="1">
          <mxGeometry x="1280" y="920" width="270" height="60" as="geometry" />
        </mxCell>
        <mxCell id="MJPnheeUQ36UCyVxqO9e-17" value="&lt;font style=&quot;font-size: 12px;&quot;&gt;Категорія: &quot;Обов&#39;язкові витрати&quot;&lt;/font&gt;" style="strokeWidth=1;shadow=0;dashed=0;align=center;html=1;shape=mxgraph.mockup.text.textBox;align=left;fontSize=17;spacingLeft=4;spacingTop=-3;whiteSpace=wrap;mainText=" vertex="1" parent="1">
          <mxGeometry x="1315" y="1080" width="195" height="50" as="geometry" />
        </mxCell>
        <mxCell id="MJPnheeUQ36UCyVxqO9e-18" value="&lt;span style=&quot;font-size: 14px;&quot;&gt;Ліміт 5500&lt;/span&gt;" style="strokeWidth=1;shadow=0;dashed=0;align=center;html=1;shape=mxgraph.mockup.text.textBox;align=left;fontSize=17;spacingLeft=4;spacingTop=-3;whiteSpace=wrap;mainText=" vertex="1" parent="1">
          <mxGeometry x="1315" y="1000" width="195" height="40" as="geometry" />
        </mxCell>
        <mxCell id="MJPnheeUQ36UCyVxqO9e-19" value="&lt;span style=&quot;font-size: 12px;&quot;&gt;Додати категорію&lt;/span&gt;" style="strokeWidth=1;shadow=0;dashed=0;align=center;html=1;shape=mxgraph.mockup.text.textBox;align=left;fontSize=17;spacingLeft=4;spacingTop=-3;whiteSpace=wrap;mainText=;" vertex="1" parent="1">
          <mxGeometry x="1315" y="1130" width="195" height="40" as="geometry" />
        </mxCell>
        <mxCell id="MJPnheeUQ36UCyVxqO9e-20" value="&lt;span style=&quot;font-size: 12px;&quot;&gt;Категорія Енергопостачання&lt;br&gt;&lt;/span&gt;" style="strokeWidth=1;shadow=0;dashed=0;align=center;html=1;shape=mxgraph.mockup.text.textBox;align=left;fontSize=17;spacingLeft=4;spacingTop=-3;whiteSpace=wrap;mainText=;" vertex="1" parent="1">
          <mxGeometry x="1315" y="1040" width="195" height="40" as="geometry" />
        </mxCell>
        <mxCell id="MJPnheeUQ36UCyVxqO9e-21" value="" style="endArrow=classic;html=1;rounded=0;exitX=1.033;exitY=0.525;exitDx=0;exitDy=0;exitPerimeter=0;entryX=0;entryY=1;entryDx=0;entryDy=0;" edge="1" parent="1" source="MJPnheeUQ36UCyVxqO9e-12" target="MJPnheeUQ36UCyVxqO9e-16">
          <mxGeometry width="50" height="50" relative="1" as="geometry">
            <mxPoint x="1100" y="1177.5" as="sourcePoint" />
            <mxPoint x="1296" y="1122.5" as="targetPoint" />
          </mxGeometry>
        </mxCell>
      </root>
    </mxGraphModel>
  </diagram>
</mxfile>
